<mxfile host="app.diagrams.net" modified="2024-02-22T13:01:06.271Z" agent="Mozilla/5.0 (Windows NT 10.0; Win64; x64) AppleWebKit/537.36 (KHTML, like Gecko) Chrome/121.0.0.0 Safari/537.36" version="23.1.5" etag="5AmMTXgv7T7emFzM7o8F" type="github">
  <diagram name="PÃ¡gina-1" id="ThXkSRT9kXb4Flnfqpx4">
    <mxGraphModel>
      <root>
        <mxCell id="0" />
        <mxCell id="1" parent="0" />
      </root>
    </mxGraphModel>
  </diagram>
</mxfile>
